<svg width="24" height="24" viewBox="0 0 24 24" fill="none" xmlns="http://www.w3.org/2000/svg">
<path d="M16.496 0C21.1082 0 24 2.87071 24 7.50396V10.2902L23.9916 10.4148C23.9308 10.863 23.5466 11.2084 23.0818 11.2084H23.0712L22.9262 11.1968C22.7357 11.166 22.5585 11.075 22.4219 10.9352C22.251 10.7604 22.1579 10.524 22.1636 10.2797V7.50396C22.1636 3.85224 20.1478 1.83641 16.496 1.83641H7.50396C3.84169 1.83641 1.83641 3.85224 1.83641 7.50396V16.5066C1.83641 20.1583 3.85224 22.1636 7.50396 22.1636H16.496C20.1583 22.1636 22.1636 20.1478 22.1636 16.5066C22.1636 15.9995 22.5747 15.5884 23.0818 15.5884C23.5889 15.5884 24 15.9995 24 16.5066C24 21.1293 21.1293 24 16.5066 24H7.50396C2.87071 24 0 21.1293 0 16.5066V7.50396C0 2.87071 2.87071 0 7.50396 0H16.496ZM6.90237 9.06596C7.14595 9.07422 7.37625 9.17897 7.54254 9.35713C7.70883 9.5353 7.79746 9.77227 7.78892 10.0158V17.6887C7.77143 18.1958 7.34616 18.5927 6.83905 18.5752C6.33194 18.5577 5.93502 18.1324 5.95251 17.6253V9.94195L5.96887 9.79836C6.00568 9.61015 6.10151 9.43707 6.24431 9.30538C6.42281 9.14076 6.65982 9.05453 6.90237 9.06596ZM12.0422 5.46702C12.5493 5.46702 12.9604 5.87811 12.9604 6.38522V17.6359C12.9604 18.143 12.5493 18.5541 12.0422 18.5541C11.5351 18.5541 11.124 18.143 11.124 17.6359V6.38522C11.124 5.87811 11.5351 5.46702 12.0422 5.46702ZM17.1293 13.1187C17.6364 13.1187 18.0475 13.5298 18.0475 14.0369V17.6253C18.0475 18.1324 17.6364 18.5435 17.1293 18.5435C16.6222 18.5435 16.2111 18.1324 16.2111 17.6253V14.0369C16.2111 13.5298 16.6222 13.1187 17.1293 13.1187Z" fill="#3C86F4"/>
</svg>
