<svg width="104" height="19" viewBox="0 0 104 19" fill="none" xmlns="http://www.w3.org/2000/svg">
<path d="M9.01305 1.097C9.12524 0.751711 9.61373 0.75171 9.72592 1.097L11.3889 6.21519C11.4391 6.36961 11.583 6.47416 11.7454 6.47416H17.1269C17.49 6.47416 17.641 6.93874 17.3472 7.15214L12.9934 10.3154C12.8621 10.4108 12.8071 10.58 12.8573 10.7344L14.5203 15.8526C14.6325 16.1978 14.2373 16.485 13.9436 16.2716L9.58978 13.1084C9.45842 13.0129 9.28055 13.0129 9.1492 13.1084L4.7954 16.2716C4.50168 16.485 4.10649 16.1978 4.21868 15.8526L5.88168 10.7344C5.93185 10.58 5.87689 10.4108 5.74553 10.3154L1.39174 7.15214C1.09802 6.93874 1.24897 6.47416 1.61203 6.47416H6.99361C7.15598 6.47416 7.29988 6.36961 7.35005 6.21519L9.01305 1.097Z" fill="#3C86F4"/>
<path d="M30.2504 1.09698C30.3625 0.751695 30.851 0.751695 30.9632 1.09698L32.6262 6.21517C32.6764 6.36959 32.8203 6.47414 32.9827 6.47414H38.3643C38.7273 6.47414 38.8783 6.93872 38.5845 7.15212L34.2307 10.3153C34.0994 10.4108 34.0444 10.5799 34.0946 10.7344L35.7576 15.8525C35.8698 16.1978 35.4746 16.485 35.1809 16.2716L30.8271 13.1083C30.6957 13.0129 30.5179 13.0129 30.3865 13.1083L26.0327 16.2716C25.739 16.485 25.3438 16.1978 25.456 15.8525L27.119 10.7344C27.1692 10.5799 27.1142 10.4108 26.9828 10.3153L22.629 7.15212C22.3353 6.93872 22.4863 6.47414 22.8493 6.47414H28.2309C28.3933 6.47414 28.5372 6.36959 28.5874 6.21517L30.2504 1.09698Z" fill="#3C86F4"/>
<path d="M51.4881 1.09698C51.6003 0.751695 52.0888 0.751695 52.201 1.09698L53.864 6.21517C53.9142 6.36959 54.0581 6.47414 54.2205 6.47414H59.602C59.9651 6.47414 60.1161 6.93872 59.8223 7.15212L55.4685 10.3153C55.3372 10.4108 55.2822 10.5799 55.3324 10.7344L56.9954 15.8525C57.1076 16.1978 56.7124 16.485 56.4187 16.2716L52.0649 13.1083C51.9335 13.0129 51.7557 13.0129 51.6243 13.1083L47.2705 16.2716C46.9768 16.485 46.5816 16.1978 46.6938 15.8525L48.3568 10.7344C48.4069 10.5799 48.352 10.4108 48.2206 10.3153L43.8668 7.15212C43.5731 6.93872 43.7241 6.47414 44.0871 6.47414H49.4687C49.6311 6.47414 49.775 6.36959 49.8251 6.21517L51.4881 1.09698Z" fill="#3C86F4"/>
<path d="M72.7255 1.09698C72.8376 0.751695 73.3261 0.751695 73.4383 1.09698L75.1013 6.21517C75.1515 6.36959 75.2954 6.47414 75.4578 6.47414H80.8393C81.2024 6.47414 81.3534 6.93872 81.0596 7.15212L76.7058 10.3153C76.5745 10.4108 76.5195 10.5799 76.5697 10.7344L78.2327 15.8525C78.3449 16.1978 77.9497 16.485 77.656 16.2716L73.3022 13.1083C73.1708 13.0129 72.993 13.0129 72.8616 13.1083L68.5078 16.2716C68.2141 16.485 67.8189 16.1978 67.9311 15.8525L69.5941 10.7344C69.6443 10.5799 69.5893 10.4108 69.4579 10.3153L65.1041 7.15212C64.8104 6.93872 64.9614 6.47414 65.3244 6.47414H70.706C70.8684 6.47414 71.0123 6.36959 71.0625 6.21517L72.7255 1.09698Z" fill="#3C86F4"/>
<path d="M93.9628 1.09698C94.0749 0.751695 94.5634 0.751695 94.6756 1.09698L96.3386 6.21517C96.3888 6.36959 96.5327 6.47414 96.6951 6.47414H102.077C102.44 6.47414 102.591 6.93872 102.297 7.15212L97.9431 10.3153C97.8118 10.4108 97.7568 10.5799 97.807 10.7344L99.47 15.8525C99.5822 16.1978 99.187 16.485 98.8933 16.2716L94.5395 13.1083C94.4081 13.0129 94.2303 13.0129 94.0989 13.1083L89.7451 16.2716C89.4514 16.485 89.0562 16.1978 89.1684 15.8525L90.8314 10.7344C90.8816 10.5799 90.8266 10.4108 90.6952 10.3153L86.3414 7.15212C86.0477 6.93872 86.1987 6.47414 86.5617 6.47414H91.9433C92.1057 6.47414 92.2496 6.36959 92.2998 6.21517L93.9628 1.09698Z" fill="#3C86F4"/>
</svg>
